ply
format ascii 1.0
comment Vox Viewer built-in colored voxel sample
element vertex 30
property float x
property float y
property float z
property uchar red
property uchar green
property uchar blue
end_header
0.00 0.00 0.00 70 130 180
0.08 0.00 0.00 70 130 180
0.16 0.00 0.00 70 130 180
0.24 0.00 0.00 70 130 180
0.32 0.00 0.00 70 130 180
0.00 0.08 0.00 70 130 180
0.08 0.08 0.00 70 130 180
0.16 0.08 0.00 70 130 180
0.24 0.08 0.00 70 130 180
0.32 0.08 0.00 70 130 180
0.00 0.16 0.00 70 130 180
0.08 0.16 0.00 70 130 180
0.16 0.16 0.00 70 130 180
0.24 0.16 0.00 70 130 180
0.32 0.16 0.00 70 130 180
0.00 0.00 0.08 224 113 94
0.00 0.00 0.16 224 113 94
0.00 0.00 0.24 224 113 94
0.00 0.08 0.08 224 113 94
0.00 0.08 0.16 224 113 94
0.00 0.08 0.24 224 113 94
0.00 0.16 0.08 224 113 94
0.00 0.16 0.16 224 113 94
0.00 0.16 0.24 224 113 94
0.16 0.08 0.08 245 188 66
0.16 0.08 0.16 245 188 66
0.24 0.08 0.08 84 166 112
0.24 0.08 0.16 84 166 112
0.24 0.08 0.24 84 166 112
0.32 0.08 0.08 84 166 112

